
<svg width="24" height="24" xmlns="http://www.w3.org/2000/svg"><g fill="none" fill-rule="evenodd"><path fill="#1E3255" d="M0 0h24v24H0z"/><path d="M10.678 10.123c.727 0 1.261.311 1.585.817l.026-.728 1.149-.002v4.784h-1.149l-.026-.728c-.324.506-.858.816-1.585.816-1.276 0-2.259-.985-2.259-2.458 0-1.5.981-2.5 2.26-2.5zM4.191 8.071v2.831c.333-.488.85-.78 1.567-.78 1.27 0 2.26 1.002 2.26 2.5v.002c0 1.473-.989 2.458-2.258 2.458-.727 0-1.252-.302-1.585-.808l-.026.72H3V8.07h1.191zm14.74-.001v6.924h-1.148l-.027-.728c-.323.506-.858.816-1.584.816-1.276 0-2.259-.985-2.259-2.458 0-1.5.98-2.5 2.259-2.5.717 0 1.233.292 1.567.79V8.07l1.192-.001zm1.964 2.14v4.784h-1.19V10.21h1.19zm-9.953.94c-.77 0-1.296.586-1.296 1.456 0 .862.526 1.438 1.296 1.438.78 0 1.305-.577 1.305-1.447 0-.862-.526-1.446-1.305-1.446zm-5.453 0c-.779 0-1.296.586-1.296 1.447 0 .87.517 1.447 1.296 1.447.77 0 1.296-.577 1.296-1.438 0-.87-.525-1.455-1.296-1.455zm10.947 0c-.77 0-1.296.586-1.296 1.456 0 .862.525 1.438 1.296 1.438.779 0 1.304-.577 1.304-1.447 0-.862-.525-1.446-1.304-1.446zM20.3 8c.412 0 .7.3.7.719 0 .418-.289.71-.7.71a.683.683 0 01-.71-.71c0-.417.298-.719.71-.719z" fill="#FFF" fill-rule="nonzero"/></g></svg>